<svg width="14" height="13" viewBox="0 0 14 13" fill="none" xmlns="http://www.w3.org/2000/svg">
<path d="M6.11633 1.13773C6.47082 0.11813 7.91277 0.11813 8.26726 1.13773L9.23365 3.91729C9.36224 4.28714 9.67185 4.56497 10.0534 4.65291L12.5692 5.23271C13.7464 5.50402 13.7465 7.18047 12.5692 7.45177L10.0534 8.03158C9.67185 8.11952 9.36224 8.39734 9.23365 8.76719L8.26726 11.5468C7.91277 12.5664 6.47082 12.5664 6.11633 11.5468L5.14994 8.76719C5.02135 8.39734 4.71174 8.11952 4.33017 8.03158L1.81435 7.45177C0.637138 7.18047 0.637136 5.50402 1.81435 5.23271L4.33017 4.65291C4.71174 4.56497 5.02135 4.28714 5.14994 3.91729L6.11633 1.13773Z" fill="#51FFF8"/>
</svg>
