<svg width="40" height="40" viewBox="0 0 40 40" fill="none" xmlns="http://www.w3.org/2000/svg">
<path d="M16.6673 15C16.6673 14.558 16.8429 14.134 17.1555 13.8215C17.468 13.5089 17.892 13.3333 18.334 13.3333C18.776 13.3333 19.1999 13.5089 19.5125 13.8215C19.8251 14.134 20.0007 14.558 20.0007 15V22.45L22.0173 22.6667L30.2507 26.3167C31.134 26.7167 31.6673 27.6 31.6673 28.5667V35.8333C31.6173 37.2 30.534 38.2833 29.1673 38.3333H18.334C17.7007 38.3333 17.1007 38.0833 16.6673 37.6167L8.50065 30.6167L9.73398 29.3333C10.0507 28.9833 10.5007 28.8 10.9673 28.8H11.334L16.6673 31.6667V15ZM18.334 8.33333C20.1021 8.33333 21.7978 9.03571 23.048 10.286C24.2983 11.5362 25.0007 13.2319 25.0007 15C25.0007 17.5 23.6673 19.6167 21.6673 20.7667V18.7333C22.684 17.8167 23.334 16.4833 23.334 15C23.334 13.6739 22.8072 12.4021 21.8695 11.4645C20.9318 10.5268 19.6601 10 18.334 10C17.0079 10 15.7361 10.5268 14.7984 11.4645C13.8608 12.4021 13.334 13.6739 13.334 15C13.334 16.4833 13.984 17.8167 15.0007 18.7333V20.7667C13.0007 19.6167 11.6673 17.5 11.6673 15C11.6673 13.2319 12.3697 11.5362 13.6199 10.286C14.8702 9.03571 16.5659 8.33333 18.334 8.33333ZM18.334 5C20.9861 5 23.5297 6.05357 25.4051 7.92893C27.2804 9.8043 28.334 12.3478 28.334 15C28.334 17.8333 27.1507 20.3833 25.2673 22.2167L23.6007 21.4667C24.5584 20.6828 25.3302 19.6961 25.8605 18.5779C26.3908 17.4596 26.6664 16.2376 26.6673 15C26.6673 12.7899 25.7893 10.6702 24.2265 9.10744C22.6637 7.54464 20.5441 6.66667 18.334 6.66667C16.1238 6.66667 14.0042 7.54464 12.4414 9.10744C10.8786 10.6702 10.0007 12.7899 10.0007 15C10.0007 18.4167 12.0507 21.35 15.0007 22.6333V24.4333C11.1173 23.05 8.33398 19.35 8.33398 15C8.33398 12.3478 9.38755 9.8043 11.2629 7.92893C13.1383 6.05357 15.6818 5 18.334 5Z" fill="#51FFF8"/>
</svg>
